<mxfile host="app.diagrams.net" agent="Mozilla/5.0 (X11; Ubuntu; Linux x86_64; rv:144.0) Gecko/20100101 Firefox/144.0" version="28.2.8">
  <diagram name="Página-1" id="BCkuAhqegSF5nuQH7lem">
    <mxGraphModel grid="1" page="1" gridSize="10" guides="1" tooltips="1" connect="1" arrows="1" fold="1" pageScale="1" pageWidth="2100" pageHeight="1200" math="0" shadow="0">
      <root>
        <mxCell id="0" />
        <mxCell id="1" parent="0" />
        <mxCell id="siO_0P9w88WIbejPGnHh-3" style="edgeStyle=orthogonalEdgeStyle;rounded=0;orthogonalLoop=1;jettySize=auto;html=1;" edge="1" parent="1" source="buHm2AWjj7rErDkthwkc-1" target="siO_0P9w88WIbejPGnHh-2">
          <mxGeometry relative="1" as="geometry" />
        </mxCell>
        <mxCell id="siO_0P9w88WIbejPGnHh-6" value="&lt;div&gt;N&lt;/div&gt;" style="edgeLabel;html=1;align=center;verticalAlign=middle;resizable=0;points=[];" connectable="0" vertex="1" parent="siO_0P9w88WIbejPGnHh-3">
          <mxGeometry x="-0.5265" y="2" relative="1" as="geometry">
            <mxPoint x="-2" as="offset" />
          </mxGeometry>
        </mxCell>
        <mxCell id="buHm2AWjj7rErDkthwkc-1" value="Médico" style="rounded=0;whiteSpace=wrap;html=1;" vertex="1" parent="1">
          <mxGeometry x="750" y="640" width="120" height="80" as="geometry" />
        </mxCell>
        <mxCell id="buHm2AWjj7rErDkthwkc-2" value="Paciente&lt;div&gt;&lt;br&gt;&lt;/div&gt;" style="rounded=0;whiteSpace=wrap;html=1;" vertex="1" parent="1">
          <mxGeometry x="900" y="280" width="120" height="60" as="geometry" />
        </mxCell>
        <mxCell id="buHm2AWjj7rErDkthwkc-4" value="&lt;div&gt;Hospital&lt;/div&gt;" style="rounded=0;whiteSpace=wrap;html=1;" vertex="1" parent="1">
          <mxGeometry x="1200" y="660" width="120" height="50" as="geometry" />
        </mxCell>
        <mxCell id="siO_0P9w88WIbejPGnHh-150" style="edgeStyle=orthogonalEdgeStyle;rounded=0;orthogonalLoop=1;jettySize=auto;html=1;exitX=0;exitY=0;exitDx=0;exitDy=0;" edge="1" parent="1" source="buHm2AWjj7rErDkthwkc-6" target="siO_0P9w88WIbejPGnHh-149">
          <mxGeometry relative="1" as="geometry" />
        </mxCell>
        <mxCell id="siO_0P9w88WIbejPGnHh-153" value="1" style="edgeLabel;html=1;align=center;verticalAlign=middle;resizable=0;points=[];" connectable="0" vertex="1" parent="siO_0P9w88WIbejPGnHh-150">
          <mxGeometry x="-0.1875" y="-2" relative="1" as="geometry">
            <mxPoint as="offset" />
          </mxGeometry>
        </mxCell>
        <mxCell id="siO_0P9w88WIbejPGnHh-160" style="edgeStyle=orthogonalEdgeStyle;rounded=0;orthogonalLoop=1;jettySize=auto;html=1;exitX=1;exitY=0;exitDx=0;exitDy=0;entryX=0;entryY=0.5;entryDx=0;entryDy=0;" edge="1" parent="1" source="buHm2AWjj7rErDkthwkc-6" target="siO_0P9w88WIbejPGnHh-158">
          <mxGeometry relative="1" as="geometry" />
        </mxCell>
        <mxCell id="buHm2AWjj7rErDkthwkc-6" value="&lt;div&gt;Procedimento&lt;/div&gt;" style="rounded=0;whiteSpace=wrap;html=1;" vertex="1" parent="1">
          <mxGeometry x="600" y="500" width="120" height="60" as="geometry" />
        </mxCell>
        <mxCell id="siO_0P9w88WIbejPGnHh-89" style="edgeStyle=orthogonalEdgeStyle;rounded=0;orthogonalLoop=1;jettySize=auto;html=1;" edge="1" parent="1" source="buHm2AWjj7rErDkthwkc-7" target="siO_0P9w88WIbejPGnHh-90">
          <mxGeometry relative="1" as="geometry">
            <mxPoint x="810" y="190" as="targetPoint" />
          </mxGeometry>
        </mxCell>
        <mxCell id="siO_0P9w88WIbejPGnHh-93" value="1" style="edgeLabel;html=1;align=center;verticalAlign=middle;resizable=0;points=[];" connectable="0" vertex="1" parent="siO_0P9w88WIbejPGnHh-89">
          <mxGeometry x="-0.7759" y="3" relative="1" as="geometry">
            <mxPoint as="offset" />
          </mxGeometry>
        </mxCell>
        <mxCell id="buHm2AWjj7rErDkthwkc-7" value="&lt;div&gt;Sala&lt;/div&gt;" style="rounded=0;whiteSpace=wrap;html=1;" vertex="1" parent="1">
          <mxGeometry x="1200" y="90" width="120" height="60" as="geometry" />
        </mxCell>
        <mxCell id="buHm2AWjj7rErDkthwkc-8" value="&lt;div&gt;Enfermeiro&lt;/div&gt;" style="rounded=0;whiteSpace=wrap;html=1;" vertex="1" parent="1">
          <mxGeometry x="320" y="770" width="120" height="60" as="geometry" />
        </mxCell>
        <mxCell id="buHm2AWjj7rErDkthwkc-9" value="&lt;div&gt;Funcionário&lt;/div&gt;" style="rounded=0;whiteSpace=wrap;html=1;" vertex="1" parent="1">
          <mxGeometry x="1550" y="655" width="120" height="60" as="geometry" />
        </mxCell>
        <mxCell id="buHm2AWjj7rErDkthwkc-10" value="&lt;div&gt;Administrador&lt;/div&gt;" style="rounded=0;whiteSpace=wrap;html=1;" vertex="1" parent="1">
          <mxGeometry x="1200" y="900" width="120" height="60" as="geometry" />
        </mxCell>
        <mxCell id="siO_0P9w88WIbejPGnHh-133" style="edgeStyle=orthogonalEdgeStyle;rounded=0;orthogonalLoop=1;jettySize=auto;html=1;" edge="1" parent="1" source="buHm2AWjj7rErDkthwkc-11" target="siO_0P9w88WIbejPGnHh-134">
          <mxGeometry relative="1" as="geometry">
            <mxPoint x="880" y="789.9999999999998" as="targetPoint" />
          </mxGeometry>
        </mxCell>
        <mxCell id="buHm2AWjj7rErDkthwkc-11" value="&lt;div&gt;Especialidade&lt;/div&gt;" style="rounded=0;whiteSpace=wrap;html=1;" vertex="1" parent="1">
          <mxGeometry x="930" y="760" width="100" height="60" as="geometry" />
        </mxCell>
        <mxCell id="buHm2AWjj7rErDkthwkc-12" value="&lt;div&gt;Entrada&lt;/div&gt;" style="rounded=0;whiteSpace=wrap;html=1;" vertex="1" parent="1">
          <mxGeometry x="900" y="510" width="120" height="40" as="geometry" />
        </mxCell>
        <mxCell id="siO_0P9w88WIbejPGnHh-2" value="possui" style="rhombus;whiteSpace=wrap;html=1;" vertex="1" parent="1">
          <mxGeometry x="900" y="640" width="80" height="80" as="geometry" />
        </mxCell>
        <mxCell id="siO_0P9w88WIbejPGnHh-9" style="edgeStyle=orthogonalEdgeStyle;rounded=0;orthogonalLoop=1;jettySize=auto;html=1;entryX=0;entryY=1;entryDx=0;entryDy=0;" edge="1" parent="1" source="siO_0P9w88WIbejPGnHh-7" target="buHm2AWjj7rErDkthwkc-4">
          <mxGeometry relative="1" as="geometry" />
        </mxCell>
        <mxCell id="siO_0P9w88WIbejPGnHh-11" value="&lt;div&gt;N&lt;/div&gt;" style="edgeLabel;html=1;align=center;verticalAlign=middle;resizable=0;points=[];" connectable="0" vertex="1" parent="siO_0P9w88WIbejPGnHh-9">
          <mxGeometry x="0.5476" y="1" relative="1" as="geometry">
            <mxPoint as="offset" />
          </mxGeometry>
        </mxCell>
        <mxCell id="siO_0P9w88WIbejPGnHh-7" value="Trabalha" style="rhombus;whiteSpace=wrap;html=1;" vertex="1" parent="1">
          <mxGeometry x="510" y="830" width="80" height="80" as="geometry" />
        </mxCell>
        <mxCell id="siO_0P9w88WIbejPGnHh-12" value="possui" style="rhombus;whiteSpace=wrap;html=1;" vertex="1" parent="1">
          <mxGeometry x="1220" y="760" width="80" height="80" as="geometry" />
        </mxCell>
        <mxCell id="siO_0P9w88WIbejPGnHh-15" value="" style="endArrow=none;html=1;rounded=0;entryX=0.5;entryY=1;entryDx=0;entryDy=0;exitX=0.5;exitY=0;exitDx=0;exitDy=0;" edge="1" parent="1" source="siO_0P9w88WIbejPGnHh-12" target="buHm2AWjj7rErDkthwkc-4">
          <mxGeometry width="50" height="50" relative="1" as="geometry">
            <mxPoint x="1245" y="770" as="sourcePoint" />
            <mxPoint x="1295" y="720" as="targetPoint" />
          </mxGeometry>
        </mxCell>
        <mxCell id="siO_0P9w88WIbejPGnHh-20" value="&lt;div&gt;1&lt;/div&gt;" style="edgeLabel;html=1;align=center;verticalAlign=middle;resizable=0;points=[];" connectable="0" vertex="1" parent="siO_0P9w88WIbejPGnHh-15">
          <mxGeometry x="0.28" relative="1" as="geometry">
            <mxPoint as="offset" />
          </mxGeometry>
        </mxCell>
        <mxCell id="siO_0P9w88WIbejPGnHh-19" value="" style="endArrow=none;html=1;rounded=0;entryX=0.493;entryY=1.05;entryDx=0;entryDy=0;entryPerimeter=0;exitX=0.5;exitY=0;exitDx=0;exitDy=0;" edge="1" parent="1" source="buHm2AWjj7rErDkthwkc-10" target="siO_0P9w88WIbejPGnHh-12">
          <mxGeometry width="50" height="50" relative="1" as="geometry">
            <mxPoint x="1200" y="890" as="sourcePoint" />
            <mxPoint x="1250" y="840" as="targetPoint" />
          </mxGeometry>
        </mxCell>
        <mxCell id="siO_0P9w88WIbejPGnHh-21" value="&lt;div&gt;1&lt;/div&gt;" style="edgeLabel;html=1;align=center;verticalAlign=middle;resizable=0;points=[];" connectable="0" vertex="1" parent="siO_0P9w88WIbejPGnHh-19">
          <mxGeometry x="-0.5515" y="-1" relative="1" as="geometry">
            <mxPoint as="offset" />
          </mxGeometry>
        </mxCell>
        <mxCell id="siO_0P9w88WIbejPGnHh-22" value="&lt;div&gt;Trabalha&lt;/div&gt;" style="rhombus;whiteSpace=wrap;html=1;" vertex="1" parent="1">
          <mxGeometry x="1390" y="645" width="80" height="80" as="geometry" />
        </mxCell>
        <mxCell id="siO_0P9w88WIbejPGnHh-24" value="" style="endArrow=none;html=1;rounded=0;exitX=1;exitY=0.5;exitDx=0;exitDy=0;entryX=0;entryY=0.5;entryDx=0;entryDy=0;" edge="1" parent="1" source="buHm2AWjj7rErDkthwkc-4" target="siO_0P9w88WIbejPGnHh-22">
          <mxGeometry width="50" height="50" relative="1" as="geometry">
            <mxPoint x="1440" y="680" as="sourcePoint" />
            <mxPoint x="1490" y="630" as="targetPoint" />
          </mxGeometry>
        </mxCell>
        <mxCell id="siO_0P9w88WIbejPGnHh-26" value="N" style="edgeLabel;html=1;align=center;verticalAlign=middle;resizable=0;points=[];" connectable="0" vertex="1" parent="siO_0P9w88WIbejPGnHh-24">
          <mxGeometry x="-0.5143" y="-3" relative="1" as="geometry">
            <mxPoint as="offset" />
          </mxGeometry>
        </mxCell>
        <mxCell id="siO_0P9w88WIbejPGnHh-25" value="" style="endArrow=none;html=1;rounded=0;exitX=1;exitY=0.5;exitDx=0;exitDy=0;entryX=0;entryY=0.5;entryDx=0;entryDy=0;" edge="1" parent="1" source="siO_0P9w88WIbejPGnHh-22" target="buHm2AWjj7rErDkthwkc-9">
          <mxGeometry width="50" height="50" relative="1" as="geometry">
            <mxPoint x="1440" y="680" as="sourcePoint" />
            <mxPoint x="1490" y="630" as="targetPoint" />
          </mxGeometry>
        </mxCell>
        <mxCell id="siO_0P9w88WIbejPGnHh-27" value="&lt;div&gt;N&lt;/div&gt;" style="edgeLabel;html=1;align=center;verticalAlign=middle;resizable=0;points=[];" connectable="0" vertex="1" parent="siO_0P9w88WIbejPGnHh-25">
          <mxGeometry x="0.6417" relative="1" as="geometry">
            <mxPoint as="offset" />
          </mxGeometry>
        </mxCell>
        <mxCell id="siO_0P9w88WIbejPGnHh-29" value="&lt;div&gt;Possui&lt;/div&gt;" style="rhombus;whiteSpace=wrap;html=1;" vertex="1" parent="1">
          <mxGeometry x="1220" y="540" width="80" height="80" as="geometry" />
        </mxCell>
        <mxCell id="siO_0P9w88WIbejPGnHh-31" value="" style="endArrow=none;html=1;rounded=0;entryX=0.5;entryY=1;entryDx=0;entryDy=0;exitX=0.5;exitY=0;exitDx=0;exitDy=0;" edge="1" parent="1" source="siO_0P9w88WIbejPGnHh-29" target="buHm2AWjj7rErDkthwkc-7">
          <mxGeometry width="50" height="50" relative="1" as="geometry">
            <mxPoint x="1440" y="680" as="sourcePoint" />
            <mxPoint x="1490" y="630" as="targetPoint" />
          </mxGeometry>
        </mxCell>
        <mxCell id="siO_0P9w88WIbejPGnHh-35" value="N" style="edgeLabel;html=1;align=center;verticalAlign=middle;resizable=0;points=[];" connectable="0" vertex="1" parent="siO_0P9w88WIbejPGnHh-31">
          <mxGeometry x="0.2778" relative="1" as="geometry">
            <mxPoint as="offset" />
          </mxGeometry>
        </mxCell>
        <mxCell id="siO_0P9w88WIbejPGnHh-33" value="" style="endArrow=none;html=1;rounded=0;entryX=0.5;entryY=1;entryDx=0;entryDy=0;exitX=0.5;exitY=0;exitDx=0;exitDy=0;" edge="1" parent="1" source="buHm2AWjj7rErDkthwkc-4" target="siO_0P9w88WIbejPGnHh-29">
          <mxGeometry width="50" height="50" relative="1" as="geometry">
            <mxPoint x="1440" y="680" as="sourcePoint" />
            <mxPoint x="1490" y="630" as="targetPoint" />
          </mxGeometry>
        </mxCell>
        <mxCell id="siO_0P9w88WIbejPGnHh-34" value="&lt;div&gt;1&lt;/div&gt;" style="edgeLabel;html=1;align=center;verticalAlign=middle;resizable=0;points=[];" connectable="0" vertex="1" parent="siO_0P9w88WIbejPGnHh-33">
          <mxGeometry x="-0.05" relative="1" as="geometry">
            <mxPoint as="offset" />
          </mxGeometry>
        </mxCell>
        <mxCell id="siO_0P9w88WIbejPGnHh-39" value="&lt;div&gt;Ocorre&lt;/div&gt;" style="rhombus;whiteSpace=wrap;html=1;" vertex="1" parent="1">
          <mxGeometry x="1110" y="490" width="80" height="80" as="geometry" />
        </mxCell>
        <mxCell id="siO_0P9w88WIbejPGnHh-40" value="" style="endArrow=none;html=1;rounded=0;entryX=0.5;entryY=1;entryDx=0;entryDy=0;exitX=0;exitY=0;exitDx=0;exitDy=0;" edge="1" parent="1" source="buHm2AWjj7rErDkthwkc-4" target="siO_0P9w88WIbejPGnHh-39">
          <mxGeometry width="50" height="50" relative="1" as="geometry">
            <mxPoint x="1120" y="680" as="sourcePoint" />
            <mxPoint x="1170" y="630" as="targetPoint" />
          </mxGeometry>
        </mxCell>
        <mxCell id="siO_0P9w88WIbejPGnHh-45" value="1" style="edgeLabel;html=1;align=center;verticalAlign=middle;resizable=0;points=[];" connectable="0" vertex="1" parent="siO_0P9w88WIbejPGnHh-40">
          <mxGeometry x="-0.5748" y="2" relative="1" as="geometry">
            <mxPoint as="offset" />
          </mxGeometry>
        </mxCell>
        <mxCell id="siO_0P9w88WIbejPGnHh-43" value="" style="endArrow=none;html=1;rounded=0;entryX=0;entryY=0.5;entryDx=0;entryDy=0;exitX=1;exitY=0.5;exitDx=0;exitDy=0;" edge="1" parent="1" source="buHm2AWjj7rErDkthwkc-12" target="siO_0P9w88WIbejPGnHh-39">
          <mxGeometry width="50" height="50" relative="1" as="geometry">
            <mxPoint x="1120" y="680" as="sourcePoint" />
            <mxPoint x="1170" y="630" as="targetPoint" />
          </mxGeometry>
        </mxCell>
        <mxCell id="siO_0P9w88WIbejPGnHh-44" value="1" style="edgeLabel;html=1;align=center;verticalAlign=middle;resizable=0;points=[];" connectable="0" vertex="1" parent="siO_0P9w88WIbejPGnHh-43">
          <mxGeometry x="-0.5167" y="-4" relative="1" as="geometry">
            <mxPoint as="offset" />
          </mxGeometry>
        </mxCell>
        <mxCell id="siO_0P9w88WIbejPGnHh-46" value="N" style="edgeLabel;html=1;align=center;verticalAlign=middle;resizable=0;points=[];" connectable="0" vertex="1" parent="siO_0P9w88WIbejPGnHh-43">
          <mxGeometry x="-0.4241" y="-2" relative="1" as="geometry">
            <mxPoint as="offset" />
          </mxGeometry>
        </mxCell>
        <mxCell id="siO_0P9w88WIbejPGnHh-47" value="&lt;div&gt;Possui&lt;/div&gt;" style="rhombus;whiteSpace=wrap;html=1;" vertex="1" parent="1">
          <mxGeometry x="920" y="390" width="80" height="80" as="geometry" />
        </mxCell>
        <mxCell id="siO_0P9w88WIbejPGnHh-48" value="" style="endArrow=none;html=1;rounded=0;exitX=0.5;exitY=0;exitDx=0;exitDy=0;entryX=0.5;entryY=1;entryDx=0;entryDy=0;" edge="1" parent="1" source="buHm2AWjj7rErDkthwkc-12" target="siO_0P9w88WIbejPGnHh-47">
          <mxGeometry width="50" height="50" relative="1" as="geometry">
            <mxPoint x="1090" y="500" as="sourcePoint" />
            <mxPoint x="1140" y="450" as="targetPoint" />
          </mxGeometry>
        </mxCell>
        <mxCell id="siO_0P9w88WIbejPGnHh-51" value="N" style="edgeLabel;html=1;align=center;verticalAlign=middle;resizable=0;points=[];" connectable="0" vertex="1" parent="siO_0P9w88WIbejPGnHh-48">
          <mxGeometry x="0.1036" relative="1" as="geometry">
            <mxPoint as="offset" />
          </mxGeometry>
        </mxCell>
        <mxCell id="siO_0P9w88WIbejPGnHh-50" value="" style="endArrow=none;html=1;rounded=0;entryX=0.5;entryY=1;entryDx=0;entryDy=0;exitX=0.5;exitY=0;exitDx=0;exitDy=0;" edge="1" parent="1" source="siO_0P9w88WIbejPGnHh-47" target="buHm2AWjj7rErDkthwkc-2">
          <mxGeometry width="50" height="50" relative="1" as="geometry">
            <mxPoint x="1090" y="500" as="sourcePoint" />
            <mxPoint x="1140" y="450" as="targetPoint" />
          </mxGeometry>
        </mxCell>
        <mxCell id="siO_0P9w88WIbejPGnHh-52" value="&lt;div&gt;1&lt;/div&gt;" style="edgeLabel;html=1;align=center;verticalAlign=middle;resizable=0;points=[];" connectable="0" vertex="1" parent="siO_0P9w88WIbejPGnHh-50">
          <mxGeometry x="0.2829" y="1" relative="1" as="geometry">
            <mxPoint as="offset" />
          </mxGeometry>
        </mxCell>
        <mxCell id="siO_0P9w88WIbejPGnHh-55" value="&lt;div&gt;Ocorre&lt;/div&gt;" style="rhombus;whiteSpace=wrap;html=1;" vertex="1" parent="1">
          <mxGeometry x="770" y="490" width="80" height="80" as="geometry" />
        </mxCell>
        <mxCell id="siO_0P9w88WIbejPGnHh-56" value="" style="endArrow=none;html=1;rounded=0;exitX=1;exitY=0.5;exitDx=0;exitDy=0;entryX=0;entryY=0.5;entryDx=0;entryDy=0;" edge="1" parent="1" source="buHm2AWjj7rErDkthwkc-6" target="siO_0P9w88WIbejPGnHh-55">
          <mxGeometry width="50" height="50" relative="1" as="geometry">
            <mxPoint x="950" y="590" as="sourcePoint" />
            <mxPoint x="1000" y="540" as="targetPoint" />
          </mxGeometry>
        </mxCell>
        <mxCell id="siO_0P9w88WIbejPGnHh-58" value="N" style="edgeLabel;html=1;align=center;verticalAlign=middle;resizable=0;points=[];" connectable="0" vertex="1" parent="siO_0P9w88WIbejPGnHh-56">
          <mxGeometry x="-0.5706" y="-2" relative="1" as="geometry">
            <mxPoint as="offset" />
          </mxGeometry>
        </mxCell>
        <mxCell id="siO_0P9w88WIbejPGnHh-57" value="" style="endArrow=none;html=1;rounded=0;exitX=1;exitY=0.5;exitDx=0;exitDy=0;entryX=0;entryY=0.5;entryDx=0;entryDy=0;" edge="1" parent="1" source="siO_0P9w88WIbejPGnHh-55" target="buHm2AWjj7rErDkthwkc-12">
          <mxGeometry width="50" height="50" relative="1" as="geometry">
            <mxPoint x="950" y="590" as="sourcePoint" />
            <mxPoint x="1000" y="540" as="targetPoint" />
          </mxGeometry>
        </mxCell>
        <mxCell id="siO_0P9w88WIbejPGnHh-59" value="&lt;div&gt;1&lt;/div&gt;" style="edgeLabel;html=1;align=center;verticalAlign=middle;resizable=0;points=[];" connectable="0" vertex="1" parent="siO_0P9w88WIbejPGnHh-57">
          <mxGeometry x="0.4087" y="1" relative="1" as="geometry">
            <mxPoint as="offset" />
          </mxGeometry>
        </mxCell>
        <mxCell id="siO_0P9w88WIbejPGnHh-60" value="" style="triangle;whiteSpace=wrap;html=1;direction=north;" vertex="1" parent="1">
          <mxGeometry x="380" y="590" width="30" height="20" as="geometry" />
        </mxCell>
        <mxCell id="siO_0P9w88WIbejPGnHh-61" value="&lt;div&gt;Profissional&lt;/div&gt;&lt;div&gt;da saude&lt;/div&gt;" style="whiteSpace=wrap;html=1;aspect=fixed;" vertex="1" parent="1">
          <mxGeometry x="355" y="490" width="80" height="80" as="geometry" />
        </mxCell>
        <mxCell id="siO_0P9w88WIbejPGnHh-64" value="encarregado" style="rhombus;whiteSpace=wrap;html=1;" vertex="1" parent="1">
          <mxGeometry x="480" y="490" width="80" height="80" as="geometry" />
        </mxCell>
        <mxCell id="siO_0P9w88WIbejPGnHh-65" value="" style="endArrow=none;html=1;rounded=0;entryX=0;entryY=0.5;entryDx=0;entryDy=0;exitX=1;exitY=0.5;exitDx=0;exitDy=0;" edge="1" parent="1" source="siO_0P9w88WIbejPGnHh-64" target="buHm2AWjj7rErDkthwkc-6">
          <mxGeometry width="50" height="50" relative="1" as="geometry">
            <mxPoint x="520" y="640" as="sourcePoint" />
            <mxPoint x="570" y="590" as="targetPoint" />
          </mxGeometry>
        </mxCell>
        <mxCell id="siO_0P9w88WIbejPGnHh-76" value="N" style="edgeLabel;html=1;align=center;verticalAlign=middle;resizable=0;points=[];" connectable="0" vertex="1" parent="siO_0P9w88WIbejPGnHh-65">
          <mxGeometry x="0.478" relative="1" as="geometry">
            <mxPoint as="offset" />
          </mxGeometry>
        </mxCell>
        <mxCell id="siO_0P9w88WIbejPGnHh-66" value="" style="endArrow=none;html=1;rounded=0;entryX=0;entryY=0.5;entryDx=0;entryDy=0;exitX=1;exitY=0.5;exitDx=0;exitDy=0;" edge="1" parent="1" source="siO_0P9w88WIbejPGnHh-61" target="siO_0P9w88WIbejPGnHh-64">
          <mxGeometry width="50" height="50" relative="1" as="geometry">
            <mxPoint x="520" y="640" as="sourcePoint" />
            <mxPoint x="570" y="590" as="targetPoint" />
          </mxGeometry>
        </mxCell>
        <mxCell id="siO_0P9w88WIbejPGnHh-77" value="N" style="edgeLabel;html=1;align=center;verticalAlign=middle;resizable=0;points=[];" connectable="0" vertex="1" parent="siO_0P9w88WIbejPGnHh-66">
          <mxGeometry x="-0.104" y="2" relative="1" as="geometry">
            <mxPoint as="offset" />
          </mxGeometry>
        </mxCell>
        <mxCell id="siO_0P9w88WIbejPGnHh-68" value="" style="endArrow=none;html=1;rounded=0;exitX=0.5;exitY=0;exitDx=0;exitDy=0;entryX=0.152;entryY=0.04;entryDx=0;entryDy=0;entryPerimeter=0;" edge="1" parent="1" source="buHm2AWjj7rErDkthwkc-8" target="siO_0P9w88WIbejPGnHh-60">
          <mxGeometry width="50" height="50" relative="1" as="geometry">
            <mxPoint x="490" y="720" as="sourcePoint" />
            <mxPoint x="381" y="624" as="targetPoint" />
          </mxGeometry>
        </mxCell>
        <mxCell id="siO_0P9w88WIbejPGnHh-71" value="" style="endArrow=none;html=1;rounded=0;entryX=0.5;entryY=1;entryDx=0;entryDy=0;exitX=1;exitY=0.5;exitDx=0;exitDy=0;" edge="1" parent="1" source="siO_0P9w88WIbejPGnHh-60" target="siO_0P9w88WIbejPGnHh-61">
          <mxGeometry width="50" height="50" relative="1" as="geometry">
            <mxPoint x="490" y="720" as="sourcePoint" />
            <mxPoint x="540" y="670" as="targetPoint" />
          </mxGeometry>
        </mxCell>
        <mxCell id="siO_0P9w88WIbejPGnHh-72" value="" style="endArrow=none;html=1;rounded=0;exitX=0.113;exitY=1.056;exitDx=0;exitDy=0;exitPerimeter=0;" edge="1" parent="1" source="siO_0P9w88WIbejPGnHh-60">
          <mxGeometry width="50" height="50" relative="1" as="geometry">
            <mxPoint x="670" y="650" as="sourcePoint" />
            <mxPoint x="810" y="610" as="targetPoint" />
          </mxGeometry>
        </mxCell>
        <mxCell id="siO_0P9w88WIbejPGnHh-73" value="" style="endArrow=none;html=1;rounded=0;exitX=0.5;exitY=0;exitDx=0;exitDy=0;" edge="1" parent="1" source="buHm2AWjj7rErDkthwkc-1">
          <mxGeometry width="50" height="50" relative="1" as="geometry">
            <mxPoint x="670" y="650" as="sourcePoint" />
            <mxPoint x="810" y="610" as="targetPoint" />
          </mxGeometry>
        </mxCell>
        <mxCell id="siO_0P9w88WIbejPGnHh-81" value="" style="endArrow=none;html=1;rounded=0;entryX=0;entryY=0.5;entryDx=0;entryDy=0;" edge="1" parent="1" target="siO_0P9w88WIbejPGnHh-7">
          <mxGeometry width="50" height="50" relative="1" as="geometry">
            <mxPoint x="260" y="870" as="sourcePoint" />
            <mxPoint x="720" y="620" as="targetPoint" />
          </mxGeometry>
        </mxCell>
        <mxCell id="siO_0P9w88WIbejPGnHh-82" value="" style="endArrow=none;html=1;rounded=0;" edge="1" parent="1">
          <mxGeometry width="50" height="50" relative="1" as="geometry">
            <mxPoint x="260" y="870" as="sourcePoint" />
            <mxPoint x="260" y="530" as="targetPoint" />
          </mxGeometry>
        </mxCell>
        <mxCell id="siO_0P9w88WIbejPGnHh-83" value="" style="endArrow=none;html=1;rounded=0;exitX=0;exitY=0.5;exitDx=0;exitDy=0;" edge="1" parent="1" source="siO_0P9w88WIbejPGnHh-61">
          <mxGeometry width="50" height="50" relative="1" as="geometry">
            <mxPoint x="670" y="670" as="sourcePoint" />
            <mxPoint x="260" y="530" as="targetPoint" />
          </mxGeometry>
        </mxCell>
        <mxCell id="siO_0P9w88WIbejPGnHh-85" value="N" style="edgeLabel;html=1;align=center;verticalAlign=middle;resizable=0;points=[];" connectable="0" vertex="1" parent="siO_0P9w88WIbejPGnHh-83">
          <mxGeometry x="-0.0396" y="-1" relative="1" as="geometry">
            <mxPoint as="offset" />
          </mxGeometry>
        </mxCell>
        <mxCell id="siO_0P9w88WIbejPGnHh-87" value="" style="endArrow=none;html=1;rounded=0;entryX=1;entryY=0.5;entryDx=0;entryDy=0;exitX=0.5;exitY=0;exitDx=0;exitDy=0;" edge="1" parent="1" source="buHm2AWjj7rErDkthwkc-11" target="siO_0P9w88WIbejPGnHh-2">
          <mxGeometry width="50" height="50" relative="1" as="geometry">
            <mxPoint x="1070" y="790" as="sourcePoint" />
            <mxPoint x="1080" y="680" as="targetPoint" />
          </mxGeometry>
        </mxCell>
        <mxCell id="siO_0P9w88WIbejPGnHh-88" value="N" style="edgeLabel;html=1;align=center;verticalAlign=middle;resizable=0;points=[];" connectable="0" vertex="1" parent="siO_0P9w88WIbejPGnHh-87">
          <mxGeometry x="-0.1444" y="-6" relative="1" as="geometry">
            <mxPoint y="1" as="offset" />
          </mxGeometry>
        </mxCell>
        <mxCell id="siO_0P9w88WIbejPGnHh-91" style="edgeStyle=orthogonalEdgeStyle;rounded=0;orthogonalLoop=1;jettySize=auto;html=1;entryX=0.5;entryY=0;entryDx=0;entryDy=0;" edge="1" parent="1" source="siO_0P9w88WIbejPGnHh-90" target="buHm2AWjj7rErDkthwkc-6">
          <mxGeometry relative="1" as="geometry" />
        </mxCell>
        <mxCell id="siO_0P9w88WIbejPGnHh-92" value="&lt;div&gt;N&lt;/div&gt;" style="edgeLabel;html=1;align=center;verticalAlign=middle;resizable=0;points=[];" connectable="0" vertex="1" parent="siO_0P9w88WIbejPGnHh-91">
          <mxGeometry x="0.5272" y="3" relative="1" as="geometry">
            <mxPoint as="offset" />
          </mxGeometry>
        </mxCell>
        <mxCell id="siO_0P9w88WIbejPGnHh-90" value="Ocorre em" style="rhombus;whiteSpace=wrap;html=1;" vertex="1" parent="1">
          <mxGeometry x="600" y="80" width="120" height="80" as="geometry" />
        </mxCell>
        <mxCell id="siO_0P9w88WIbejPGnHh-98" style="edgeStyle=orthogonalEdgeStyle;rounded=0;orthogonalLoop=1;jettySize=auto;html=1;entryX=0.5;entryY=0;entryDx=0;entryDy=0;" edge="1" parent="1" source="siO_0P9w88WIbejPGnHh-96" target="buHm2AWjj7rErDkthwkc-2">
          <mxGeometry relative="1" as="geometry" />
        </mxCell>
        <mxCell id="siO_0P9w88WIbejPGnHh-96" value="Telefone" style="ellipse;shape=doubleEllipse;whiteSpace=wrap;html=1;" vertex="1" parent="1">
          <mxGeometry x="915" y="210" width="90" height="40" as="geometry" />
        </mxCell>
        <mxCell id="siO_0P9w88WIbejPGnHh-99" value="&lt;u&gt;CNES&lt;/u&gt;" style="ellipse;whiteSpace=wrap;html=1;" vertex="1" parent="1">
          <mxGeometry x="1370" y="560" width="80" height="40" as="geometry" />
        </mxCell>
        <mxCell id="siO_0P9w88WIbejPGnHh-100" value="" style="endArrow=none;html=1;rounded=0;exitX=1;exitY=0;exitDx=0;exitDy=0;entryX=0;entryY=0.5;entryDx=0;entryDy=0;" edge="1" parent="1" source="buHm2AWjj7rErDkthwkc-4" target="siO_0P9w88WIbejPGnHh-99">
          <mxGeometry width="50" height="50" relative="1" as="geometry">
            <mxPoint x="1500" y="770" as="sourcePoint" />
            <mxPoint x="1550" y="720" as="targetPoint" />
          </mxGeometry>
        </mxCell>
        <mxCell id="siO_0P9w88WIbejPGnHh-103" style="edgeStyle=orthogonalEdgeStyle;rounded=0;orthogonalLoop=1;jettySize=auto;html=1;entryX=1;entryY=0.5;entryDx=0;entryDy=0;" edge="1" parent="1" source="siO_0P9w88WIbejPGnHh-102" target="buHm2AWjj7rErDkthwkc-2">
          <mxGeometry relative="1" as="geometry" />
        </mxCell>
        <mxCell id="siO_0P9w88WIbejPGnHh-102" value="&lt;div&gt;dt nasc&lt;/div&gt;" style="ellipse;whiteSpace=wrap;html=1;" vertex="1" parent="1">
          <mxGeometry x="1100" y="280" width="90" height="60" as="geometry" />
        </mxCell>
        <mxCell id="siO_0P9w88WIbejPGnHh-105" style="edgeStyle=orthogonalEdgeStyle;rounded=0;orthogonalLoop=1;jettySize=auto;html=1;entryX=0;entryY=0.5;entryDx=0;entryDy=0;" edge="1" parent="1" source="siO_0P9w88WIbejPGnHh-104" target="buHm2AWjj7rErDkthwkc-2">
          <mxGeometry relative="1" as="geometry" />
        </mxCell>
        <mxCell id="siO_0P9w88WIbejPGnHh-104" value="sexo" style="ellipse;whiteSpace=wrap;html=1;" vertex="1" parent="1">
          <mxGeometry x="730" y="280" width="90" height="60" as="geometry" />
        </mxCell>
        <mxCell id="siO_0P9w88WIbejPGnHh-107" style="edgeStyle=orthogonalEdgeStyle;rounded=0;orthogonalLoop=1;jettySize=auto;html=1;entryX=0;entryY=0.5;entryDx=0;entryDy=0;" edge="1" parent="1" source="siO_0P9w88WIbejPGnHh-106" target="buHm2AWjj7rErDkthwkc-1">
          <mxGeometry relative="1" as="geometry" />
        </mxCell>
        <mxCell id="siO_0P9w88WIbejPGnHh-106" value="&lt;u&gt;CRM&lt;/u&gt;" style="ellipse;whiteSpace=wrap;html=1;" vertex="1" parent="1">
          <mxGeometry x="580" y="652.5" width="100" height="57.5" as="geometry" />
        </mxCell>
        <mxCell id="siO_0P9w88WIbejPGnHh-109" style="edgeStyle=orthogonalEdgeStyle;rounded=0;orthogonalLoop=1;jettySize=auto;html=1;entryX=0;entryY=1;entryDx=0;entryDy=0;" edge="1" parent="1" source="siO_0P9w88WIbejPGnHh-108" target="buHm2AWjj7rErDkthwkc-2">
          <mxGeometry relative="1" as="geometry" />
        </mxCell>
        <mxCell id="siO_0P9w88WIbejPGnHh-108" value="nome" style="ellipse;whiteSpace=wrap;html=1;" vertex="1" parent="1">
          <mxGeometry x="730" y="360" width="95" height="60" as="geometry" />
        </mxCell>
        <mxCell id="siO_0P9w88WIbejPGnHh-112" style="edgeStyle=orthogonalEdgeStyle;rounded=0;orthogonalLoop=1;jettySize=auto;html=1;entryX=1;entryY=1;entryDx=0;entryDy=0;" edge="1" parent="1" source="siO_0P9w88WIbejPGnHh-110" target="buHm2AWjj7rErDkthwkc-2">
          <mxGeometry relative="1" as="geometry" />
        </mxCell>
        <mxCell id="siO_0P9w88WIbejPGnHh-110" value="tipo sanguíneo" style="ellipse;whiteSpace=wrap;html=1;" vertex="1" parent="1">
          <mxGeometry x="1100" y="360" width="90" height="60" as="geometry" />
        </mxCell>
        <mxCell id="siO_0P9w88WIbejPGnHh-114" style="edgeStyle=orthogonalEdgeStyle;rounded=0;orthogonalLoop=1;jettySize=auto;html=1;entryX=0;entryY=0;entryDx=0;entryDy=0;exitX=1;exitY=0.5;exitDx=0;exitDy=0;" edge="1" parent="1" source="siO_0P9w88WIbejPGnHh-115" target="buHm2AWjj7rErDkthwkc-2">
          <mxGeometry relative="1" as="geometry">
            <mxPoint x="824.9999183672726" y="185.04761904761892" as="sourcePoint" />
          </mxGeometry>
        </mxCell>
        <mxCell id="siO_0P9w88WIbejPGnHh-115" value="&lt;div&gt;doenças/alergias&lt;/div&gt;" style="ellipse;shape=doubleEllipse;whiteSpace=wrap;html=1;" vertex="1" parent="1">
          <mxGeometry x="720" y="160" width="100" height="60" as="geometry" />
        </mxCell>
        <mxCell id="siO_0P9w88WIbejPGnHh-119" style="edgeStyle=orthogonalEdgeStyle;rounded=0;orthogonalLoop=1;jettySize=auto;html=1;entryX=1;entryY=0.5;entryDx=0;entryDy=0;" edge="1" parent="1" source="siO_0P9w88WIbejPGnHh-118" target="buHm2AWjj7rErDkthwkc-9">
          <mxGeometry relative="1" as="geometry" />
        </mxCell>
        <mxCell id="siO_0P9w88WIbejPGnHh-118" value="&lt;u&gt;matricula&lt;/u&gt;" style="ellipse;whiteSpace=wrap;html=1;" vertex="1" parent="1">
          <mxGeometry x="1780" y="645" width="90" height="80" as="geometry" />
        </mxCell>
        <mxCell id="siO_0P9w88WIbejPGnHh-123" style="edgeStyle=orthogonalEdgeStyle;rounded=0;orthogonalLoop=1;jettySize=auto;html=1;entryX=0.5;entryY=0;entryDx=0;entryDy=0;" edge="1" parent="1" source="siO_0P9w88WIbejPGnHh-122" target="buHm2AWjj7rErDkthwkc-9">
          <mxGeometry relative="1" as="geometry" />
        </mxCell>
        <mxCell id="siO_0P9w88WIbejPGnHh-122" value="nome" style="ellipse;whiteSpace=wrap;html=1;" vertex="1" parent="1">
          <mxGeometry x="1550" y="520" width="120" height="80" as="geometry" />
        </mxCell>
        <mxCell id="siO_0P9w88WIbejPGnHh-126" style="edgeStyle=orthogonalEdgeStyle;rounded=0;orthogonalLoop=1;jettySize=auto;html=1;entryX=1;entryY=0.5;entryDx=0;entryDy=0;" edge="1" parent="1" source="siO_0P9w88WIbejPGnHh-125" target="buHm2AWjj7rErDkthwkc-8">
          <mxGeometry relative="1" as="geometry" />
        </mxCell>
        <mxCell id="siO_0P9w88WIbejPGnHh-125" value="&lt;u&gt;codigo&lt;/u&gt;" style="ellipse;whiteSpace=wrap;html=1;" vertex="1" parent="1">
          <mxGeometry x="480" y="770" width="70" height="60" as="geometry" />
        </mxCell>
        <mxCell id="siO_0P9w88WIbejPGnHh-132" style="edgeStyle=orthogonalEdgeStyle;rounded=0;orthogonalLoop=1;jettySize=auto;html=1;entryX=0.5;entryY=0;entryDx=0;entryDy=0;" edge="1" parent="1" source="siO_0P9w88WIbejPGnHh-130" target="siO_0P9w88WIbejPGnHh-61">
          <mxGeometry relative="1" as="geometry" />
        </mxCell>
        <mxCell id="siO_0P9w88WIbejPGnHh-130" value="nome" style="ellipse;whiteSpace=wrap;html=1;" vertex="1" parent="1">
          <mxGeometry x="380" y="400" width="105" height="50" as="geometry" />
        </mxCell>
        <mxCell id="siO_0P9w88WIbejPGnHh-134" value="nome" style="ellipse;whiteSpace=wrap;html=1;" vertex="1" parent="1">
          <mxGeometry x="770" y="760" width="90" height="60" as="geometry" />
        </mxCell>
        <mxCell id="siO_0P9w88WIbejPGnHh-136" style="edgeStyle=orthogonalEdgeStyle;rounded=0;orthogonalLoop=1;jettySize=auto;html=1;entryX=1;entryY=0.5;entryDx=0;entryDy=0;" edge="1" parent="1" source="siO_0P9w88WIbejPGnHh-135" target="buHm2AWjj7rErDkthwkc-11">
          <mxGeometry relative="1" as="geometry" />
        </mxCell>
        <mxCell id="siO_0P9w88WIbejPGnHh-135" value="&lt;u&gt;id&lt;/u&gt;" style="ellipse;whiteSpace=wrap;html=1;" vertex="1" parent="1">
          <mxGeometry x="1070" y="755" width="90" height="70" as="geometry" />
        </mxCell>
        <mxCell id="siO_0P9w88WIbejPGnHh-138" style="edgeStyle=orthogonalEdgeStyle;rounded=0;orthogonalLoop=1;jettySize=auto;html=1;entryX=0.5;entryY=1;entryDx=0;entryDy=0;" edge="1" parent="1" source="siO_0P9w88WIbejPGnHh-137" target="buHm2AWjj7rErDkthwkc-10">
          <mxGeometry relative="1" as="geometry" />
        </mxCell>
        <mxCell id="siO_0P9w88WIbejPGnHh-137" value="nome" style="ellipse;whiteSpace=wrap;html=1;" vertex="1" parent="1">
          <mxGeometry x="1200" y="1010" width="120" height="80" as="geometry" />
        </mxCell>
        <mxCell id="siO_0P9w88WIbejPGnHh-140" style="edgeStyle=orthogonalEdgeStyle;rounded=0;orthogonalLoop=1;jettySize=auto;html=1;entryX=1;entryY=0.5;entryDx=0;entryDy=0;" edge="1" parent="1" source="siO_0P9w88WIbejPGnHh-139" target="buHm2AWjj7rErDkthwkc-10">
          <mxGeometry relative="1" as="geometry" />
        </mxCell>
        <mxCell id="siO_0P9w88WIbejPGnHh-139" value="&lt;u&gt;ID&lt;/u&gt;" style="ellipse;whiteSpace=wrap;html=1;" vertex="1" parent="1">
          <mxGeometry x="1400" y="890" width="120" height="80" as="geometry" />
        </mxCell>
        <mxCell id="siO_0P9w88WIbejPGnHh-142" style="edgeStyle=orthogonalEdgeStyle;rounded=0;orthogonalLoop=1;jettySize=auto;html=1;" edge="1" parent="1" source="siO_0P9w88WIbejPGnHh-141" target="buHm2AWjj7rErDkthwkc-12">
          <mxGeometry relative="1" as="geometry" />
        </mxCell>
        <mxCell id="siO_0P9w88WIbejPGnHh-141" value="date_time" style="ellipse;whiteSpace=wrap;html=1;" vertex="1" parent="1">
          <mxGeometry x="1020" y="600" width="80" height="60" as="geometry" />
        </mxCell>
        <mxCell id="siO_0P9w88WIbejPGnHh-144" style="edgeStyle=orthogonalEdgeStyle;rounded=0;orthogonalLoop=1;jettySize=auto;html=1;entryX=1;entryY=1;entryDx=0;entryDy=0;" edge="1" parent="1" source="siO_0P9w88WIbejPGnHh-143" target="buHm2AWjj7rErDkthwkc-4">
          <mxGeometry relative="1" as="geometry" />
        </mxCell>
        <mxCell id="siO_0P9w88WIbejPGnHh-143" value="Nome" style="ellipse;whiteSpace=wrap;html=1;" vertex="1" parent="1">
          <mxGeometry x="1370" y="740" width="80" height="60" as="geometry" />
        </mxCell>
        <mxCell id="siO_0P9w88WIbejPGnHh-147" style="edgeStyle=orthogonalEdgeStyle;rounded=0;orthogonalLoop=1;jettySize=auto;html=1;entryX=0;entryY=0.5;entryDx=0;entryDy=0;" edge="1" parent="1" source="siO_0P9w88WIbejPGnHh-145" target="buHm2AWjj7rErDkthwkc-4">
          <mxGeometry relative="1" as="geometry" />
        </mxCell>
        <mxCell id="siO_0P9w88WIbejPGnHh-145" value="cep" style="ellipse;whiteSpace=wrap;html=1;" vertex="1" parent="1">
          <mxGeometry x="1080" y="660" width="90" height="50" as="geometry" />
        </mxCell>
        <mxCell id="siO_0P9w88WIbejPGnHh-151" style="edgeStyle=orthogonalEdgeStyle;rounded=0;orthogonalLoop=1;jettySize=auto;html=1;entryX=0.5;entryY=0;entryDx=0;entryDy=0;" edge="1" parent="1" source="siO_0P9w88WIbejPGnHh-148" target="siO_0P9w88WIbejPGnHh-149">
          <mxGeometry relative="1" as="geometry" />
        </mxCell>
        <mxCell id="siO_0P9w88WIbejPGnHh-152" value="N" style="edgeLabel;html=1;align=center;verticalAlign=middle;resizable=0;points=[];" connectable="0" vertex="1" parent="siO_0P9w88WIbejPGnHh-151">
          <mxGeometry x="0.0316" y="-1" relative="1" as="geometry">
            <mxPoint as="offset" />
          </mxGeometry>
        </mxCell>
        <mxCell id="siO_0P9w88WIbejPGnHh-148" value="Tipo Proc." style="rounded=0;whiteSpace=wrap;html=1;" vertex="1" parent="1">
          <mxGeometry x="510" y="230" width="120" height="60" as="geometry" />
        </mxCell>
        <mxCell id="siO_0P9w88WIbejPGnHh-149" value="possui" style="rhombus;whiteSpace=wrap;html=1;" vertex="1" parent="1">
          <mxGeometry x="560" y="370" width="80" height="80" as="geometry" />
        </mxCell>
        <mxCell id="siO_0P9w88WIbejPGnHh-155" style="edgeStyle=orthogonalEdgeStyle;rounded=0;orthogonalLoop=1;jettySize=auto;html=1;entryX=0.5;entryY=0;entryDx=0;entryDy=0;" edge="1" parent="1" source="siO_0P9w88WIbejPGnHh-154" target="siO_0P9w88WIbejPGnHh-148">
          <mxGeometry relative="1" as="geometry" />
        </mxCell>
        <mxCell id="siO_0P9w88WIbejPGnHh-154" value="&lt;u&gt;ID&lt;/u&gt;" style="ellipse;whiteSpace=wrap;html=1;" vertex="1" parent="1">
          <mxGeometry x="430" y="150" width="70" height="50" as="geometry" />
        </mxCell>
        <mxCell id="siO_0P9w88WIbejPGnHh-157" style="edgeStyle=orthogonalEdgeStyle;rounded=0;orthogonalLoop=1;jettySize=auto;html=1;entryX=0;entryY=0.5;entryDx=0;entryDy=0;" edge="1" parent="1" source="siO_0P9w88WIbejPGnHh-156" target="siO_0P9w88WIbejPGnHh-148">
          <mxGeometry relative="1" as="geometry" />
        </mxCell>
        <mxCell id="siO_0P9w88WIbejPGnHh-156" value="Nome" style="ellipse;whiteSpace=wrap;html=1;" vertex="1" parent="1">
          <mxGeometry x="361.25" y="225" width="98.75" height="70" as="geometry" />
        </mxCell>
        <mxCell id="siO_0P9w88WIbejPGnHh-158" value="&lt;u&gt;ID&lt;/u&gt;" style="ellipse;whiteSpace=wrap;html=1;" vertex="1" parent="1">
          <mxGeometry x="740" y="440" width="70" height="50" as="geometry" />
        </mxCell>
        <mxCell id="siO_0P9w88WIbejPGnHh-164" style="edgeStyle=orthogonalEdgeStyle;rounded=0;orthogonalLoop=1;jettySize=auto;html=1;entryX=1;entryY=0.5;entryDx=0;entryDy=0;" edge="1" parent="1" source="siO_0P9w88WIbejPGnHh-163" target="buHm2AWjj7rErDkthwkc-7">
          <mxGeometry relative="1" as="geometry" />
        </mxCell>
        <mxCell id="siO_0P9w88WIbejPGnHh-163" value="&lt;b&gt;&lt;u&gt;id&lt;/u&gt;&lt;/b&gt;" style="ellipse;whiteSpace=wrap;html=1;" vertex="1" parent="1">
          <mxGeometry x="1420" y="80" width="100" height="80" as="geometry" />
        </mxCell>
        <mxCell id="KaXxjhbdyWxAgQbA5802-1" value="numero" style="ellipse;whiteSpace=wrap;html=1;" vertex="1" parent="1">
          <mxGeometry x="1360" y="190" width="120" height="80" as="geometry" />
        </mxCell>
        <mxCell id="KaXxjhbdyWxAgQbA5802-4" style="edgeStyle=orthogonalEdgeStyle;rounded=0;orthogonalLoop=1;jettySize=auto;html=1;exitX=0;exitY=0.5;exitDx=0;exitDy=0;entryX=0.83;entryY=0.985;entryDx=0;entryDy=0;entryPerimeter=0;" edge="1" parent="1" source="KaXxjhbdyWxAgQbA5802-1" target="buHm2AWjj7rErDkthwkc-7">
          <mxGeometry relative="1" as="geometry" />
        </mxCell>
        <mxCell id="KaXxjhbdyWxAgQbA5802-5" value="função" style="rounded=0;whiteSpace=wrap;html=1;" vertex="1" parent="1">
          <mxGeometry x="1650" y="870" width="120" height="60" as="geometry" />
        </mxCell>
        <mxCell id="KaXxjhbdyWxAgQbA5802-6" value="possui" style="rhombus;whiteSpace=wrap;html=1;" vertex="1" parent="1">
          <mxGeometry x="1620" y="755" width="80" height="80" as="geometry" />
        </mxCell>
        <mxCell id="KaXxjhbdyWxAgQbA5802-8" value="" style="endArrow=none;html=1;rounded=0;entryX=0.5;entryY=1;entryDx=0;entryDy=0;exitX=0.5;exitY=0;exitDx=0;exitDy=0;" edge="1" parent="1" source="KaXxjhbdyWxAgQbA5802-6" target="buHm2AWjj7rErDkthwkc-9">
          <mxGeometry width="50" height="50" relative="1" as="geometry">
            <mxPoint x="1520" y="780" as="sourcePoint" />
            <mxPoint x="1570" y="730" as="targetPoint" />
          </mxGeometry>
        </mxCell>
        <mxCell id="KaXxjhbdyWxAgQbA5802-10" value="N" style="edgeLabel;html=1;align=center;verticalAlign=middle;resizable=0;points=[];" connectable="0" vertex="1" parent="KaXxjhbdyWxAgQbA5802-8">
          <mxGeometry x="-0.062" y="3" relative="1" as="geometry">
            <mxPoint y="1" as="offset" />
          </mxGeometry>
        </mxCell>
        <mxCell id="KaXxjhbdyWxAgQbA5802-9" value="1" style="endArrow=none;html=1;rounded=0;entryX=0.5;entryY=0;entryDx=0;entryDy=0;exitX=0.5;exitY=1;exitDx=0;exitDy=0;" edge="1" parent="1" source="KaXxjhbdyWxAgQbA5802-6" target="KaXxjhbdyWxAgQbA5802-5">
          <mxGeometry width="50" height="50" relative="1" as="geometry">
            <mxPoint x="1520" y="780" as="sourcePoint" />
            <mxPoint x="1570" y="730" as="targetPoint" />
          </mxGeometry>
        </mxCell>
        <mxCell id="KaXxjhbdyWxAgQbA5802-16" style="edgeStyle=orthogonalEdgeStyle;rounded=0;orthogonalLoop=1;jettySize=auto;html=1;exitX=0;exitY=0.5;exitDx=0;exitDy=0;entryX=1;entryY=0.5;entryDx=0;entryDy=0;" edge="1" parent="1" source="KaXxjhbdyWxAgQbA5802-11" target="KaXxjhbdyWxAgQbA5802-5">
          <mxGeometry relative="1" as="geometry">
            <mxPoint x="1779.9999999999995" y="899.7058823529412" as="targetPoint" />
          </mxGeometry>
        </mxCell>
        <mxCell id="KaXxjhbdyWxAgQbA5802-11" value="&lt;u&gt;id&lt;/u&gt;" style="ellipse;whiteSpace=wrap;html=1;" vertex="1" parent="1">
          <mxGeometry x="1890" y="860" width="120" height="80" as="geometry" />
        </mxCell>
        <mxCell id="KaXxjhbdyWxAgQbA5802-15" style="edgeStyle=orthogonalEdgeStyle;rounded=0;orthogonalLoop=1;jettySize=auto;html=1;exitX=0;exitY=0.5;exitDx=0;exitDy=0;entryX=0.5;entryY=1;entryDx=0;entryDy=0;" edge="1" parent="1" source="KaXxjhbdyWxAgQbA5802-12" target="KaXxjhbdyWxAgQbA5802-5">
          <mxGeometry relative="1" as="geometry" />
        </mxCell>
        <mxCell id="KaXxjhbdyWxAgQbA5802-12" value="nome" style="ellipse;whiteSpace=wrap;html=1;" vertex="1" parent="1">
          <mxGeometry x="1740" y="1000" width="120" height="80" as="geometry" />
        </mxCell>
        <mxCell id="KaXxjhbdyWxAgQbA5802-18" style="edgeStyle=orthogonalEdgeStyle;rounded=0;orthogonalLoop=1;jettySize=auto;html=1;entryX=0;entryY=0.25;entryDx=0;entryDy=0;" edge="1" parent="1" source="KaXxjhbdyWxAgQbA5802-17" target="siO_0P9w88WIbejPGnHh-61">
          <mxGeometry relative="1" as="geometry" />
        </mxCell>
        <mxCell id="KaXxjhbdyWxAgQbA5802-17" value="Tipo" style="ellipse;whiteSpace=wrap;html=1;" vertex="1" parent="1">
          <mxGeometry x="210" y="320" width="120" height="50" as="geometry" />
        </mxCell>
        <mxCell id="KaXxjhbdyWxAgQbA5802-20" style="edgeStyle=orthogonalEdgeStyle;rounded=0;orthogonalLoop=1;jettySize=auto;html=1;entryX=0.25;entryY=0;entryDx=0;entryDy=0;" edge="1" parent="1" source="KaXxjhbdyWxAgQbA5802-19" target="siO_0P9w88WIbejPGnHh-61">
          <mxGeometry relative="1" as="geometry" />
        </mxCell>
        <mxCell id="KaXxjhbdyWxAgQbA5802-19" value="&lt;u&gt;CPF&lt;/u&gt;" style="ellipse;whiteSpace=wrap;html=1;" vertex="1" parent="1">
          <mxGeometry x="80" y="450" width="120" height="80" as="geometry" />
        </mxCell>
        <mxCell id="KaXxjhbdyWxAgQbA5802-22" style="edgeStyle=orthogonalEdgeStyle;rounded=0;orthogonalLoop=1;jettySize=auto;html=1;entryX=1;entryY=0;entryDx=0;entryDy=0;" edge="1" parent="1" source="KaXxjhbdyWxAgQbA5802-21" target="buHm2AWjj7rErDkthwkc-2">
          <mxGeometry relative="1" as="geometry" />
        </mxCell>
        <mxCell id="KaXxjhbdyWxAgQbA5802-21" value="&lt;u&gt;CPF&lt;/u&gt;" style="ellipse;whiteSpace=wrap;html=1;" vertex="1" parent="1">
          <mxGeometry x="1075" y="180" width="100" height="50" as="geometry" />
        </mxCell>
        <mxCell id="KaXxjhbdyWxAgQbA5802-24" style="edgeStyle=orthogonalEdgeStyle;rounded=0;orthogonalLoop=1;jettySize=auto;html=1;entryX=0.75;entryY=0;entryDx=0;entryDy=0;" edge="1" parent="1" source="KaXxjhbdyWxAgQbA5802-23" target="buHm2AWjj7rErDkthwkc-12">
          <mxGeometry relative="1" as="geometry" />
        </mxCell>
        <mxCell id="KaXxjhbdyWxAgQbA5802-23" value="&lt;u&gt;codigo&lt;/u&gt;" style="ellipse;whiteSpace=wrap;html=1;" vertex="1" parent="1">
          <mxGeometry x="1017.5" y="440" width="85" height="40" as="geometry" />
        </mxCell>
      </root>
    </mxGraphModel>
  </diagram>
</mxfile>
